<?xml version="1.0" encoding="UTF-8" standalone="no"?>
<svg width="204px" height="29px" viewBox="0 0 204 29" version="1.1" xmlns="http://www.w3.org/2000/svg" xmlns:xlink="http://www.w3.org/1999/xlink" xmlns:sketch="http://www.bohemiancoding.com/sketch/ns">
    <!-- Generator: bin/sketchtool 1.4 (305) - http://www.bohemiancoding.com/sketch -->
    <title>LOGO AND NAVIGATION Copy</title>
    <desc>Created with bin/sketchtool.</desc>
    <defs></defs>
    <g id="Nav_Exploration-5" stroke="none" stroke-width="1" fill="none" fill-rule="evenodd" sketch:type="MSPage">
        <g id="Homepage_Default" sketch:type="MSArtboardGroup" transform="translate(-30.000000, -12.000000)">
            <g id="HEADER" sketch:type="MSLayerGroup" transform="translate(0.000000, -1.000000)">
                <g id="LOGO-AND-NAVIGATION-Copy" transform="translate(20.000000, 13.000000)" sketch:type="MSShapeGroup">
                    <g id="LOGO" transform="translate(10.000000, 0.000000)">
                        <g id="Group-Copy">
                            <path d="M33.5178628,21.9835263 L33.5178628,11.832 C33.5178628,11.0764737 33.3418484,10.6544474 32.7305848,10.6544474 C32.3807653,10.6544474 31.6222094,11.0764737 31.6222094,11.0764737 L31.6222094,21.9835263 L25.9072635,21.9835263 L25.9072635,5.48710526 L31.3305704,5.48710526 L31.3305704,7.17902632 L31.3894874,7.17902632 C32.1473069,6.06176316 33.8676823,5.00402632 35.1800578,5.00402632 C38.8815162,5.00402632 39.2328087,7.66210526 39.2328087,10.9558947 L39.2328087,21.9835263 L33.5178628,21.9835263" id="Fill-1" fill="#000000"></path>
                            <path d="M18.9697906,5.06431579 C14.3624838,5.06431579 10.6021083,8.961 10.6021083,13.7360789 C10.6021083,18.5348158 14.3624838,22.4070789 18.9697906,22.4070789 C23.6028736,22.4070789 27.3382094,18.5348158 27.3382094,13.7360789 C27.3382094,8.961 23.6028736,5.06431579 18.9697906,5.06431579 L18.9697906,5.06431579 Z M18.9697906,15.6195526 C17.9748303,15.6195526 17.1529386,14.7678684 17.1529386,13.7360789 C17.1529386,12.7035263 17.9748303,11.8510789 18.9697906,11.8510789 C19.9662238,11.8510789 20.788852,12.7035263 20.788852,13.7360789 C20.788852,14.7678684 19.9662238,15.6195526 18.9697906,15.6195526 L18.9697906,15.6195526 Z" id="Fill-2" fill="#EC1C24"></path>
                            <path d="M18.9697906,11.8510789 C17.9748303,11.8510789 17.1529386,12.7035263 17.1529386,13.7360789 C17.1529386,14.7678684 17.9748303,15.6195526 18.9697906,15.6195526 C19.9662238,15.6195526 20.788852,14.7678684 20.788852,13.7360789 C20.788852,12.7035263 19.9662238,11.8510789 18.9697906,11.8510789" id="Fill-3" fill="#FFFFFF"></path>
                            <path d="M45.4014152,22.3765526 C44.0021372,22.3765526 41.4657617,22.1651579 40.1533863,21.6813158 L40.1533863,16.7879474 L40.7072058,16.9085263 C40.7072058,16.9085263 43.4195957,17.5724737 44.8188736,17.5724737 C45.2261372,17.5724737 45.8675957,17.5427105 45.8675957,16.9680526 C45.8675957,15.7599737 40.0362888,16.0316579 40.0362888,10.7452632 C40.0362888,7.08821053 42.5446787,5.06431579 45.9265126,5.06431579 C47.4716101,5.06431579 49.5705271,5.36728947 51,6.032 L51,10.5567632 L50.2421805,10.3812368 C50.2421805,10.3812368 47.9952347,9.86915789 46.4508736,9.86915789 C46.1010542,9.86915789 45.6635957,9.86915789 45.6635957,10.3514737 C45.6635957,11.7419474 51.4661805,10.9558947 51.4661805,16.5757895 C51.4661805,20.3221316 48.8708881,22.3765526 45.4014152,22.3765526" id="Fill-4" fill="#000000"></path>
                            <path d="M57.8638267,5.48710526 L57.8638267,15.6393947 C57.8638267,16.3933947 58.0383682,16.8177105 58.6511047,16.8177105 C59.0001877,16.8177105 59.7587437,16.3933947 59.7587437,16.3933947 L59.7587437,5.48710526 L65.4729531,5.48710526 L65.4729531,21.9835263 L60.0503827,21.9835263 L60.0503827,20.2923684 L59.9922022,20.2923684 C59.2343827,21.4103947 57.5132708,22.4673684 56.2008953,22.4673684 C52.4987004,22.4673684 52.1488809,19.8085263 52.1488809,16.5155 L52.1488809,5.48710526 L57.8638267,5.48710526" id="Fill-5" fill="#000000"></path>
                            <path d="M81.8702816,21.9835263 L81.8702816,11.832 C81.8702816,11.0764737 81.6950036,10.6544474 81.0822671,10.6544474 C80.7331841,10.6544474 79.9746282,11.0764737 79.9746282,11.0764737 L79.9746282,21.9835263 L74.2604188,21.9835263 L74.2604188,11.832 C74.2604188,11.0764737 74.0851408,10.6544474 73.4731408,10.6544474 C73.1233213,10.6544474 72.3647653,11.0764737 72.3647653,11.0764737 L72.3647653,21.9835263 L66.6512924,21.9835263 L66.6512924,5.48710526 L72.0738628,5.48710526 L72.0738628,7.17902632 L72.1320433,7.17902632 C72.8898628,6.06176316 74.6102383,5.00402632 75.9218773,5.00402632 C78.0797112,5.00402632 79.0997112,5.91065789 79.5666282,7.33013158 C80.1499061,6.57460526 81.6368231,5.00402632 83.5317401,5.00402632 C87.233935,5.00402632 87.584491,7.66210526 87.584491,10.9558947 L87.584491,21.9835263 L81.8702816,21.9835263" id="Fill-6" fill="#000000"></path>
                            <path d="M101.313617,13.4331053 C101.313617,8.81065789 100.263422,5.06431579 95.073574,5.06431579 C89.6510036,5.06431579 88.3378917,8.99228947 88.3378917,13.9169474 C88.3378917,19.2949211 90.0295451,22.4070789 95.569213,22.4070789 C97.3190469,22.4070789 99.6219639,22.1041053 101.283422,21.5302105 L101.283422,16.6498158 L100.6427,16.7871842 C99.3310614,17.0588684 97.7859639,17.3000263 96.4448664,17.3000263 C95.1906715,17.3000263 93.849574,16.9382895 93.8790325,15.3677105 L101.313617,15.3677105 L101.313617,13.4331053 L101.313617,13.4331053 Z M95.860852,12.1952632 L93.8790325,12.1952632 L93.8790325,12.1044474 C93.8790325,11.4099737 93.8790325,9.56618421 94.869574,9.56618421 C95.860852,9.56618421 95.860852,11.4099737 95.860852,12.1044474 L95.860852,12.1952632 L95.860852,12.1952632 Z" id="Fill-7" fill="#000000"></path>
                            <path d="M123.070917,12.9202632 C123.070917,12.9202632 124.965834,10.9864211 124.965834,8.08565789 C124.965834,3.25181579 122.4,0.653263158 117.151971,0.653263158 L111.379581,0.653263158 L111.379581,21.9835263 L117.151971,21.9835263 L117.151971,15.1250263 L117.822888,15.1250263 L119.494657,21.9835263 L125.966686,21.9835263 L123.070917,12.9202632 L123.070917,12.9202632 Z M117.151971,10.7452632 L117.151971,5.78931579 C118.522527,5.78931579 119.077083,6.81728947 119.077083,8.14594737 C119.077083,9.47536842 118.580708,10.7452632 117.151971,10.7452632 L117.151971,10.7452632 Z" id="Fill-8" fill="#000000"></path>
                            <path d="M138.024043,13.4331053 C138.024043,8.81065789 136.973848,5.06431579 131.784736,5.06431579 C126.36143,5.06431579 125.049791,8.99228947 125.049791,13.9169474 C125.049791,19.2949211 126.739971,22.4070789 132.281112,22.4070789 C134.029473,22.4070789 136.33239,22.1041053 137.995321,21.5302105 L137.995321,16.646 L137.353863,16.7871842 C136.042224,17.0588684 134.49639,17.3000263 133.155292,17.3000263 C131.901834,17.3000263 130.56,16.9382895 130.588722,15.3677105 L138.024043,15.3677105 L138.024043,13.4331053 L138.024043,13.4331053 Z M132.572014,12.1952632 L130.588722,12.1952632 L130.588722,12.1044474 C130.588722,11.4099737 130.588722,9.56618421 131.581473,9.56618421 C132.572014,9.56618421 132.572014,11.4099737 132.572014,12.1044474 L132.572014,12.1952632 L132.572014,12.1952632 Z" id="Fill-9" fill="#000000"></path>
                            <path d="M147.472116,5.06431579 C145.461574,5.06431579 144.382657,7.05844737 144.382657,7.05844737 L144.294282,7.05844737 L144.294282,5.48710526 L138.871711,5.48710526 L138.871711,28.4497632 L144.584448,28.4497632 L144.584448,22.2254474 L144.848101,22.2254474 C150.096866,22.2254474 152.253964,19.6276579 152.253964,13.3125263 C152.253964,7.81473684 150.795769,5.06431579 147.472116,5.06431579 L147.472116,5.06431579 Z M145.141213,17.6632895 C144.937213,17.6632895 144.761199,17.6327632 144.584448,17.5427105 L144.584448,10.2308947 C144.790657,10.1408421 145.080823,10.0797895 145.286296,10.0797895 C146.452852,10.0797895 146.540491,12.7386316 146.540491,13.5849737 C146.540491,15.6691579 146.480838,17.6632895 145.141213,17.6632895 L145.141213,17.6632895 Z" id="Fill-10" fill="#000000"></path>
                            <path d="M159.663509,5.06431579 C154.503856,5.06431579 152.754022,8.75036842 152.754022,13.8261316 C152.754022,18.9026579 154.240202,22.4070789 159.518426,22.4070789 C164.679552,22.4070789 166.427177,18.7210263 166.427177,13.6452632 C166.427177,8.5695 164.939523,5.06431579 159.663509,5.06431579 L159.663509,5.06431579 Z M159.605329,17.4816579 C158.672968,17.4816579 158.468968,16.5155 158.468968,13.7360789 C158.468968,10.9558947 158.672968,9.98897368 159.605329,9.98897368 C160.539899,9.98897368 160.740953,10.9558947 160.740953,13.7360789 C160.740953,16.5155 160.539899,17.4816579 159.605329,17.4816579 L159.605329,17.4816579 Z" id="Fill-11" fill="#000000"></path>
                            <path d="M190.737054,10.3812368 C190.737054,9.89968421 191.17304,9.89968421 191.524332,9.89968421 C193.068693,9.89968421 195.31343,10.4117632 195.31343,10.4117632 L196.071986,10.5758421 L196.071986,6.061 C194.643249,5.39705263 192.543596,5.09484211 190.998498,5.09484211 C187.616664,5.09484211 185.109747,7.11873684 185.109747,10.7750263 C185.109747,16.0614211 190.941791,15.6996842 190.941791,16.9085263 C190.941791,17.4816579 190.299596,17.4816579 189.890859,17.4816579 L185.107538,17.4816579 L185.107538,22.4070789 L190.474137,22.4070789 C193.94361,22.4070789 196.538903,20.3526579 196.538903,16.6055526 C196.538903,10.9864211 190.737054,11.7709474 190.737054,10.3812368" id="Fill-12" fill="#000000"></path>
                            <path d="M183.651552,17.4816579 C182.661011,17.4816579 182.046065,16.7871842 182.046065,15.7599737 L182.046065,10.2576053 L184.467552,10.2576053 L184.467552,5.00631579 L182.046065,5.00631579 L182.046065,2.13302632 L177.353329,2.13302632 L176.334801,5.00402632 L176.334801,16.2430526 C176.334801,21.2585263 178.48969,22.4070789 182.222816,22.4070789 L184.464606,22.4070789 L184.464606,17.4816579 L183.651552,17.4816579" id="Fill-13" fill="#000000"></path>
                            <path d="M171.990412,7.84373684 L171.903509,7.84373684 L171.903509,5.48710526 L167.121661,5.48710526 L167.121661,21.9835263 L172.83587,21.9835263 L172.83587,11.2886316 C173.520043,10.8238684 174.313949,10.4896053 175.690397,10.3430789 L175.690397,5.08797368 C173.504578,5.35965789 172.257747,6.30597368 171.990412,7.84373684" id="Fill-14" fill="#000000"></path>
                            <path d="M107.032982,7.84373684 L106.946816,7.84373684 L106.946816,5.48710526 L102.164231,5.48710526 L102.164231,21.9835263 L107.879913,21.9835263 L107.879913,11.2886316 C108.562614,10.8238684 109.358729,10.4896053 110.732968,10.3430789 L110.732968,5.08797368 C108.547884,5.35965789 107.301791,6.30597368 107.032982,7.84373684" id="Fill-15" fill="#000000"></path>
                            <path d="M8.18798556,22.4070789 C1.65703971,22.4070789 0.14066426,18.1768947 0.14066426,11.4389737 C0.14066426,5.06431579 2.00685921,0.230473684 8.13054152,0.230473684 C10.579278,0.230473684 12.094917,0.803605263 12.6781949,1.25768421 L12.6781949,6.51126316 L11.686917,6.15181579 C10.783278,5.81984211 9.85018051,5.57792105 8.79998556,5.57792105 C6.70106859,5.57792105 5.9432491,7.60257895 5.9432491,11.1970526 C5.9432491,14.9143947 6.75998556,16.9680526 9.03344404,16.9680526 C10.0254585,16.9680526 11.103639,16.7871842 11.8916534,16.5155 L12.7599422,16.1987895 L12.7658339,21.4401579 C11.8614585,21.8934737 10.375278,22.4070789 8.18798556,22.4070789" id="Fill-16" fill="#000000"></path>
                            <path d="M201.162412,2.09868421 C201.54169,2.09868421 201.909184,2.20018421 202.269314,2.40013158 C202.63239,2.60160526 202.912982,2.88931579 203.1133,3.26402632 C203.313617,3.6395 203.413776,4.02871053 203.413776,4.43623684 C203.413776,4.83918421 203.31509,5.22686842 203.117718,5.597 C202.918874,5.96713158 202.643437,6.25636842 202.283307,6.46318421 C201.926859,6.66618421 201.553473,6.76921053 201.162412,6.76921053 C200.77135,6.76921053 200.397227,6.66618421 200.04078,6.46318421 C199.685069,6.25636842 199.40374,5.96713158 199.207105,5.597 C199.006787,5.22686842 198.906628,4.83918421 198.906628,4.43623684 C198.906628,4.02871053 199.006787,3.6395 199.210787,3.26402632 C199.411841,2.88931579 199.692433,2.60160526 200.054773,2.40013158 C200.414903,2.20018421 200.784606,2.09868421 201.162412,2.09868421 L201.162412,2.09868421 Z M201.162412,2.48560526 C200.846469,2.48560526 200.536419,2.56955263 200.238152,2.73744737 C199.938412,2.90534211 199.704217,3.1465 199.53483,3.45786842 C199.366917,3.77152632 199.280014,4.09663158 199.280014,4.43623684 C199.280014,4.77126316 199.364708,5.09484211 199.531148,5.40392105 C199.696116,5.71147368 199.927365,5.95186842 200.227841,6.12434211 C200.524635,6.29757895 200.836895,6.38228947 201.162412,6.38228947 C201.487928,6.38228947 201.800188,6.29757895 202.096245,6.12434211 C202.396722,5.95186842 202.627971,5.71147368 202.793675,5.40392105 C202.959379,5.09484211 203.039653,4.77126316 203.039653,4.43623684 C203.039653,4.09663158 202.95717,3.77152632 202.78852,3.45786842 C202.620606,3.1465 202.385675,2.90534211 202.084462,2.73744737 C201.783986,2.56955263 201.476144,2.48560526 201.162412,2.48560526 L201.162412,2.48560526 Z M200.174079,5.7275 L200.174079,3.21365789 L201.006282,3.21365789 C201.291292,3.21365789 201.498975,3.23655263 201.626383,3.28234211 C201.753054,3.33042105 201.853949,3.40978947 201.930542,3.52578947 C202.005661,3.64178947 202.042484,3.76465789 202.042484,3.89515789 C202.042484,4.07678947 201.980621,4.23857895 201.853949,4.37442105 C201.726542,4.51026316 201.561574,4.58581579 201.348736,4.60260526 C201.437848,4.64 201.504866,4.6835 201.557155,4.73692105 C201.653632,4.83536842 201.772939,5.00097368 201.915076,5.2345 L202.21187,5.7275 L201.734643,5.7275 L201.518859,5.32989474 C201.348736,5.01928947 201.212491,4.82392105 201.110123,4.74531579 C201.037213,4.68731579 200.932635,4.65907895 200.794917,4.65907895 L200.565141,4.65907895 L200.565141,5.7275 L200.174079,5.7275 L200.174079,5.7275 Z M200.565141,4.31184211 L201.040159,4.31184211 C201.266253,4.31184211 201.422383,4.27597368 201.504866,4.20728947 C201.585877,4.13631579 201.627856,4.04244737 201.627856,3.92797368 C201.627856,3.85318421 201.607235,3.78755263 201.568202,3.72878947 C201.528433,3.67002632 201.471726,3.62576316 201.401025,3.59676316 C201.334007,3.56776316 201.200708,3.55402632 201.009964,3.55402632 L200.565141,3.55402632 L200.565141,4.31184211 L200.565141,4.31184211 Z" id="Fill-17" fill="#FFFFFF"></path>
                        </g>
                    </g>
                </g>
            </g>
        </g>
    </g>
</svg>